# Blender 4.1.1
# www.blender.org
mtllib circle_half.mtl
o Circle
v -1.000000 0.000000 0.000000
v -0.980785 0.000000 0.195090
v -0.923880 0.000000 0.382683
v -0.831470 0.000000 0.555570
v -0.707107 0.000000 0.707107
v -0.555570 0.000000 0.831470
v -0.382683 0.000000 0.923880
v -0.195090 0.000000 0.980785
v 0.000000 0.000000 1.000000
v 0.195090 0.000000 0.980785
v 0.382683 0.000000 0.923880
v 0.555570 0.000000 0.831470
v 0.707107 0.000000 0.707107
v 0.831470 0.000000 0.555570
v 0.923880 0.000000 0.382683
v 0.980785 0.000000 0.195090
v 1.000000 0.000000 0.000000
vn -0.0000 1.0000 -0.0000
vt 0.492919 1.002269
vt 0.395067 0.991236
vt 0.139835 0.850151
vt 0.301248 0.961326
vt 0.215067 0.913687
vt 0.078445 0.773158
vt 0.033254 0.685668
vt 0.006001 0.591043
vt -0.002269 0.492919
vt 0.008763 0.395067
vt 0.149849 0.139835
vt 0.038674 0.301248
vt 0.086313 0.215067
vt 0.226842 0.078445
vt 0.314332 0.033254
vt 0.408957 0.006001
vt 0.507081 -0.002269
s 0
f 1/1/1 2/2/1 5/3/1
f 2/2/1 3/4/1 5/3/1
f 3/4/1 4/5/1 5/3/1
f 5/3/1 6/6/1 7/7/1
f 7/7/1 8/8/1 5/3/1
f 8/8/1 9/9/1 5/3/1
f 9/9/1 10/10/1 13/11/1
f 10/10/1 11/12/1 13/11/1
f 11/12/1 12/13/1 13/11/1
f 13/11/1 14/14/1 15/15/1
f 15/15/1 16/16/1 13/11/1
f 16/16/1 17/17/1 13/11/1
f 17/17/1 1/1/1 9/9/1
f 1/1/1 5/3/1 9/9/1
f 9/9/1 13/11/1 17/17/1
