# Blender 3.1.0
# www.blender.org
mtllib sphere.mtl
o Sphere
v 0.000000 0.707107 -0.707107
v 0.000000 0.382683 -0.923880
v 0.000000 -0.382683 -0.923880
v 0.000000 -0.923880 -0.382683
v 0.146447 0.923880 -0.353553
v 0.270598 0.707107 -0.653281
v 0.353553 0.382683 -0.853553
v 0.382683 -0.000000 -0.923880
v 0.353553 -0.382683 -0.853553
v 0.270598 -0.707107 -0.653281
v 0.146447 -0.923880 -0.353553
v 0.270598 0.923880 -0.270598
v 0.500000 0.707107 -0.500000
v 0.653282 0.382683 -0.653281
v 0.707107 -0.000000 -0.707107
v 0.653282 -0.382683 -0.653281
v 0.500000 -0.707107 -0.500000
v 0.270598 -0.923880 -0.270598
v 0.353554 0.923880 -0.146447
v 0.653282 0.707107 -0.270598
v 0.853554 0.382683 -0.353553
v 0.923880 -0.000000 -0.382683
v 0.853554 -0.382683 -0.353553
v 0.653282 -0.707107 -0.270598
v 0.353554 -0.923880 -0.146447
v 0.382684 0.923880 0.000000
v 0.707107 0.707107 0.000000
v 0.923880 0.382683 0.000000
v 1.000000 -0.000000 0.000000
v 0.923880 -0.382683 0.000000
v 0.707107 -0.707107 0.000000
v 0.382684 -0.923880 0.000000
v 0.353553 0.923880 0.146447
v 0.653282 0.707107 0.270598
v 0.853553 0.382683 0.353554
v 0.923879 -0.000000 0.382684
v 0.853553 -0.382683 0.353554
v 0.653282 -0.707107 0.270598
v 0.353553 -0.923880 0.146447
v 0.270598 0.923880 0.270598
v 0.500000 0.707107 0.500000
v 0.653281 0.382683 0.653282
v 0.707107 -0.000000 0.707107
v 0.653281 -0.382683 0.653282
v 0.500000 -0.707107 0.500000
v 0.270598 -0.923880 0.270598
v 0.146447 0.923880 0.353554
v 0.270598 0.707107 0.653282
v 0.353553 0.382683 0.853554
v 0.382683 -0.000000 0.923880
v 0.353553 -0.382683 0.853554
v 0.270598 -0.707107 0.653282
v 0.146447 -0.923880 0.353554
v -0.000000 1.000000 0.000000
v -0.000000 0.923880 0.382684
v -0.000000 0.707107 0.707107
v -0.000000 0.382683 0.923880
v -0.000000 -0.000000 1.000000
v -0.000000 -0.382683 0.923880
v -0.000000 -0.707107 0.707107
v -0.000000 -0.923880 0.382684
v -0.146447 0.923880 0.353553
v -0.270598 0.707107 0.653282
v -0.353554 0.382683 0.853553
v -0.382684 -0.000000 0.923880
v -0.353554 -0.382683 0.853553
v -0.270598 -0.707107 0.653282
v -0.146447 -0.923880 0.353553
v -0.270598 0.923880 0.270598
v -0.500000 0.707107 0.500000
v -0.653282 0.382683 0.653281
v -0.707107 -0.000000 0.707107
v -0.653282 -0.382683 0.653281
v -0.500000 -0.707107 0.500000
v -0.270598 -0.923880 0.270598
v 0.000000 -1.000000 0.000000
v -0.353553 0.923880 0.146447
v -0.653282 0.707107 0.270598
v -0.853553 0.382683 0.353553
v -0.923880 -0.000000 0.382683
v -0.853553 -0.382683 0.353553
v -0.653282 -0.707107 0.270598
v -0.353553 -0.923880 0.146447
v -0.382683 0.923880 -0.000000
v -0.707107 0.707107 -0.000000
v -0.923879 0.382683 -0.000000
v -1.000000 -0.000000 -0.000000
v -0.923879 -0.382683 -0.000000
v -0.707107 -0.707107 -0.000000
v -0.382683 -0.923880 -0.000000
v -0.353553 0.923880 -0.146447
v -0.653281 0.707107 -0.270598
v -0.853553 0.382683 -0.353554
v -0.923879 -0.000000 -0.382684
v -0.853553 -0.382683 -0.353554
v -0.653281 -0.707107 -0.270598
v -0.353553 -0.923880 -0.146447
v -0.270598 0.923880 -0.270598
v -0.500000 0.707107 -0.500000
v -0.653281 0.382683 -0.653282
v -0.707106 -0.000000 -0.707107
v -0.653281 -0.382683 -0.653282
v -0.500000 -0.707107 -0.500000
v -0.270598 -0.923880 -0.270598
v -0.146446 0.923880 -0.353553
v -0.270598 0.707107 -0.653281
v -0.353553 0.382683 -0.853553
v -0.382683 -0.000000 -0.923880
v -0.353553 -0.382683 -0.853553
v -0.270598 -0.707107 -0.653281
v -0.146446 -0.923880 -0.353553
v 0.000000 0.923880 -0.382683
v 0.000001 -0.000000 -1.000000
v 0.000000 -0.707107 -0.707107
vn 0.0388 -0.9800 -0.1949
vn 0.1632 -0.5481 -0.8203
vn 0.1915 0.1915 -0.9626
vn 0.1098 0.8264 -0.5522
vn 0.1098 -0.8264 -0.5522
vn 0.1915 -0.1915 -0.9626
vn 0.1632 0.5481 -0.8203
vn 0.0388 0.9800 -0.1949
vn 0.3128 -0.8264 -0.4681
vn 0.5453 -0.1915 -0.8161
vn 0.4647 0.5481 -0.6954
vn 0.1104 0.9800 -0.1653
vn 0.1104 -0.9800 -0.1653
vn 0.4647 -0.5481 -0.6954
vn 0.5453 0.1915 -0.8161
vn 0.3128 0.8264 -0.4681
vn 0.8161 -0.1915 -0.5453
vn 0.6954 0.5481 -0.4647
vn 0.1653 0.9800 -0.1104
vn 0.1653 -0.9800 -0.1104
vn 0.6954 -0.5481 -0.4647
vn 0.8161 0.1915 -0.5453
vn 0.4681 0.8264 -0.3128
vn 0.4681 -0.8264 -0.3128
vn 0.1949 -0.9800 -0.0388
vn 0.8203 -0.5481 -0.1632
vn 0.9626 0.1915 -0.1915
vn 0.5522 0.8264 -0.1098
vn 0.5522 -0.8264 -0.1098
vn 0.9626 -0.1915 -0.1915
vn 0.8203 0.5481 -0.1632
vn 0.1949 0.9800 -0.0388
vn 0.9626 0.1915 0.1915
vn 0.5522 0.8264 0.1098
vn 0.5522 -0.8264 0.1098
vn 0.9626 -0.1915 0.1915
vn 0.8203 0.5481 0.1632
vn 0.1949 0.9800 0.0388
vn 0.1949 -0.9800 0.0388
vn 0.8203 -0.5481 0.1632
vn 0.4681 -0.8264 0.3128
vn 0.8161 -0.1915 0.5453
vn 0.6954 0.5481 0.4647
vn 0.1653 0.9800 0.1104
vn 0.1653 -0.9800 0.1104
vn 0.6954 -0.5481 0.4647
vn 0.8161 0.1915 0.5453
vn 0.4681 0.8264 0.3128
vn 0.4647 0.5481 0.6954
vn 0.1104 0.9800 0.1653
vn 0.1104 -0.9800 0.1653
vn 0.4647 -0.5481 0.6954
vn 0.5453 0.1915 0.8161
vn 0.3128 0.8264 0.4681
vn 0.3128 -0.8264 0.4681
vn 0.5453 -0.1915 0.8161
vn 0.0388 -0.9800 0.1949
vn 0.1632 -0.5481 0.8203
vn 0.1915 0.1915 0.9626
vn 0.1098 0.8264 0.5522
vn 0.1098 -0.8264 0.5522
vn 0.1915 -0.1915 0.9626
vn 0.1632 0.5481 0.8203
vn 0.0388 0.9800 0.1949
vn -0.1098 0.8264 0.5522
vn -0.1098 -0.8264 0.5522
vn -0.1915 -0.1915 0.9626
vn -0.1632 0.5481 0.8203
vn -0.0388 0.9800 0.1949
vn -0.0388 -0.9800 0.1949
vn -0.1632 -0.5481 0.8203
vn -0.1915 0.1915 0.9626
vn -0.3128 -0.8264 0.4681
vn -0.5453 -0.1915 0.8161
vn -0.4647 0.5481 0.6954
vn -0.1104 0.9800 0.1653
vn -0.1104 -0.9800 0.1653
vn -0.4647 -0.5481 0.6954
vn -0.5453 0.1915 0.8161
vn -0.3128 0.8264 0.4681
vn -0.1653 0.9800 0.1104
vn -0.1653 -0.9800 0.1104
vn -0.6954 -0.5481 0.4647
vn -0.8161 0.1915 0.5453
vn -0.4681 0.8264 0.3128
vn -0.4681 -0.8264 0.3128
vn -0.8161 -0.1915 0.5453
vn -0.6954 0.5481 0.4647
vn -0.8203 -0.5481 0.1632
vn -0.9626 0.1915 0.1915
vn -0.5522 0.8264 0.1098
vn -0.5522 -0.8264 0.1098
vn -0.9626 -0.1915 0.1915
vn -0.8203 0.5481 0.1632
vn -0.1949 0.9800 0.0388
vn -0.1949 -0.9800 0.0388
vn -0.5522 -0.8264 -0.1098
vn -0.9626 -0.1915 -0.1915
vn -0.8203 0.5481 -0.1632
vn -0.1949 0.9800 -0.0388
vn -0.1949 -0.9800 -0.0388
vn -0.8203 -0.5481 -0.1632
vn -0.9626 0.1915 -0.1915
vn -0.5522 0.8264 -0.1098
vn -0.8161 -0.1915 -0.5453
vn -0.6954 0.5481 -0.4647
vn -0.1653 0.9800 -0.1104
vn -0.1653 -0.9800 -0.1104
vn -0.6954 -0.5481 -0.4647
vn -0.8161 0.1915 -0.5453
vn -0.4681 0.8264 -0.3128
vn -0.4681 -0.8264 -0.3128
vn -0.1104 -0.9800 -0.1653
vn -0.4647 -0.5481 -0.6954
vn -0.5453 0.1915 -0.8161
vn -0.3128 0.8264 -0.4681
vn -0.3128 -0.8264 -0.4681
vn -0.5453 -0.1915 -0.8161
vn -0.4647 0.5481 -0.6954
vn -0.1104 0.9800 -0.1653
vn -0.1915 0.1915 -0.9626
vn -0.1098 0.8264 -0.5522
vn -0.1098 -0.8264 -0.5522
vn -0.1915 -0.1915 -0.9626
vn -0.1632 0.5481 -0.8203
vn -0.0388 0.9800 -0.1949
vn -0.0388 -0.9800 -0.1949
vn -0.1632 -0.5481 -0.8203
vt 0.750000 0.750000
vt 0.750000 0.625000
vt 0.750000 0.375000
vt 0.750000 0.125000
vt 0.687500 0.875000
vt 0.687500 0.750000
vt 0.687500 0.625000
vt 0.687500 0.500000
vt 0.687500 0.375000
vt 0.687500 0.250000
vt 0.687500 0.125000
vt 0.625000 0.875000
vt 0.625000 0.750000
vt 0.625000 0.625000
vt 0.625000 0.500000
vt 0.625000 0.375000
vt 0.625000 0.250000
vt 0.625000 0.125000
vt 0.562500 0.875000
vt 0.562500 0.750000
vt 0.562500 0.625000
vt 0.562500 0.500000
vt 0.562500 0.375000
vt 0.562500 0.250000
vt 0.562500 0.125000
vt 0.500000 0.875000
vt 0.500000 0.750000
vt 0.500000 0.625000
vt 0.500000 0.500000
vt 0.500000 0.375000
vt 0.500000 0.250000
vt 0.500000 0.125000
vt 0.437500 0.875000
vt 0.437500 0.750000
vt 0.437500 0.625000
vt 0.437500 0.500000
vt 0.437500 0.375000
vt 0.437500 0.250000
vt 0.437500 0.125000
vt 0.375000 0.875000
vt 0.375000 0.750000
vt 0.375000 0.625000
vt 0.375000 0.500000
vt 0.375000 0.375000
vt 0.375000 0.250000
vt 0.375000 0.125000
vt 0.312500 0.875000
vt 0.312500 0.750000
vt 0.312500 0.625000
vt 0.312500 0.500000
vt 0.312500 0.375000
vt 0.312500 0.250000
vt 0.312500 0.125000
vt 0.718750 1.000000
vt 0.656250 1.000000
vt 0.593750 1.000000
vt 0.531250 1.000000
vt 0.468750 1.000000
vt 0.406250 1.000000
vt 0.343750 1.000000
vt 0.281250 1.000000
vt 0.218750 1.000000
vt 0.156250 1.000000
vt 0.093750 1.000000
vt 0.031250 1.000000
vt 0.968750 1.000000
vt 0.906250 1.000000
vt 0.843750 1.000000
vt 0.781250 1.000000
vt 0.250000 0.875000
vt 0.250000 0.750000
vt 0.250000 0.625000
vt 0.250000 0.500000
vt 0.250000 0.375000
vt 0.250000 0.250000
vt 0.250000 0.125000
vt 0.187500 0.875000
vt 0.187500 0.750000
vt 0.187500 0.625000
vt 0.187500 0.500000
vt 0.187500 0.375000
vt 0.187500 0.250000
vt 0.187500 0.125000
vt 0.125000 0.875000
vt 0.125000 0.750000
vt 0.125000 0.625000
vt 0.125000 0.500000
vt 0.125000 0.375000
vt 0.125000 0.250000
vt 0.125000 0.125000
vt 0.718750 0.000000
vt 0.656250 0.000000
vt 0.593750 0.000000
vt 0.531250 0.000000
vt 0.468750 0.000000
vt 0.406250 0.000000
vt 0.343750 0.000000
vt 0.281250 0.000000
vt 0.218750 0.000000
vt 0.156250 0.000000
vt 0.093750 0.000000
vt 0.031250 0.000000
vt 0.968750 0.000000
vt 0.906250 0.000000
vt 0.843750 0.000000
vt 0.781250 0.000000
vt 0.062500 0.875000
vt 0.062500 0.750000
vt 0.062500 0.625000
vt 0.062500 0.500000
vt 0.062500 0.375000
vt 0.062500 0.250000
vt 0.062500 0.125000
vt 0.000000 0.875000
vt 1.000000 0.875000
vt 0.000000 0.750000
vt 1.000000 0.750000
vt 0.000000 0.625000
vt 1.000000 0.625000
vt 0.000000 0.500000
vt 1.000000 0.500000
vt 0.000000 0.375000
vt 1.000000 0.375000
vt 0.000000 0.250000
vt 1.000000 0.250000
vt 1.000000 0.125000
vt 0.000000 0.125000
vt 0.937500 0.875000
vt 0.937500 0.750000
vt 0.937500 0.625000
vt 0.937500 0.500000
vt 0.937500 0.375000
vt 0.937500 0.250000
vt 0.937500 0.125000
vt 0.875000 0.875000
vt 0.875000 0.750000
vt 0.875000 0.625000
vt 0.875000 0.500000
vt 0.875000 0.375000
vt 0.875000 0.250000
vt 0.875000 0.125000
vt 0.812500 0.875000
vt 0.812500 0.750000
vt 0.812500 0.625000
vt 0.812500 0.500000
vt 0.812500 0.375000
vt 0.812500 0.250000
vt 0.812500 0.125000
vt 0.750000 0.875000
vt 0.750000 0.500000
vt 0.750000 0.250000
s 0
f 76/91/1 4/4/1 11/11/1
f 114/151/2 9/9/2 10/10/2
f 113/150/3 7/7/3 8/8/3
f 112/149/4 6/6/4 1/1/4
f 114/151/5 11/11/5 4/4/5
f 113/150/6 9/9/6 3/3/6
f 1/1/7 7/7/7 2/2/7
f 112/149/8 54/54/8 5/5/8
f 10/10/9 18/18/9 11/11/9
f 8/8/10 16/16/10 9/9/10
f 6/6/11 14/14/11 7/7/11
f 5/5/12 54/55/12 12/12/12
f 76/92/13 11/11/13 18/18/13
f 9/9/14 17/17/14 10/10/14
f 7/7/15 15/15/15 8/8/15
f 5/5/16 13/13/16 6/6/16
f 15/15/17 23/23/17 16/16/17
f 13/13/18 21/21/18 14/14/18
f 12/12/19 54/56/19 19/19/19
f 76/93/20 18/18/20 25/25/20
f 16/16/21 24/24/21 17/17/21
f 14/14/22 22/22/22 15/15/22
f 12/12/23 20/20/23 13/13/23
f 17/17/24 25/25/24 18/18/24
f 76/94/25 25/25/25 32/32/25
f 23/23/26 31/31/26 24/24/26
f 22/22/27 28/28/27 29/29/27
f 20/20/28 26/26/28 27/27/28
f 24/24/29 32/32/29 25/25/29
f 22/22/30 30/30/30 23/23/30
f 20/20/31 28/28/31 21/21/31
f 19/19/32 54/57/32 26/26/32
f 28/28/33 36/36/33 29/29/33
f 26/26/34 34/34/34 27/27/34
f 32/32/35 38/38/35 39/39/35
f 29/29/36 37/37/36 30/30/36
f 28/28/37 34/34/37 35/35/37
f 26/26/38 54/58/38 33/33/38
f 76/95/39 32/32/39 39/39/39
f 30/30/40 38/38/40 31/31/40
f 38/38/41 46/46/41 39/39/41
f 36/36/42 44/44/42 37/37/42
f 35/35/43 41/41/43 42/42/43
f 33/33/44 54/59/44 40/40/44
f 76/96/45 39/39/45 46/46/45
f 37/37/46 45/45/46 38/38/46
f 35/35/47 43/43/47 36/36/47
f 33/33/48 41/41/48 34/34/48
f 42/42/49 48/48/49 49/49/49
f 40/40/50 54/60/50 47/47/50
f 76/97/51 46/46/51 53/53/51
f 44/44/52 52/52/52 45/45/52
f 42/42/53 50/50/53 43/43/53
f 40/40/54 48/48/54 41/41/54
f 46/46/55 52/52/55 53/53/55
f 44/44/56 50/50/56 51/51/56
f 76/98/57 53/53/57 61/76/57
f 51/51/58 60/75/58 52/52/58
f 49/49/59 58/73/59 50/50/59
f 47/47/60 56/71/60 48/48/60
f 53/53/61 60/75/61 61/76/61
f 50/50/62 59/74/62 51/51/62
f 48/48/63 57/72/63 49/49/63
f 47/47/64 54/61/64 55/70/64
f 55/70/65 63/78/65 56/71/65
f 60/75/66 68/83/66 61/76/66
f 59/74/67 65/80/67 66/81/67
f 56/71/68 64/79/68 57/72/68
f 55/70/69 54/62/69 62/77/69
f 76/99/70 61/76/70 68/83/70
f 59/74/71 67/82/71 60/75/71
f 58/73/72 64/79/72 65/80/72
f 68/83/73 74/89/73 75/90/73
f 65/80/74 73/88/74 66/81/74
f 63/78/75 71/86/75 64/79/75
f 62/77/76 54/63/76 69/84/76
f 76/100/77 68/83/77 75/90/77
f 66/81/78 74/89/78 67/82/78
f 64/79/79 72/87/79 65/80/79
f 62/77/80 70/85/80 63/78/80
f 69/84/81 54/64/81 77/107/81
f 76/101/82 75/90/82 83/113/82
f 73/88/83 82/112/83 74/89/83
f 71/86/84 80/110/84 72/87/84
f 69/84/85 78/108/85 70/85/85
f 75/90/86 82/112/86 83/113/86
f 72/87/87 81/111/87 73/88/87
f 70/85/88 79/109/88 71/86/88
f 81/111/89 89/124/89 82/112/89
f 80/110/90 86/118/90 87/120/90
f 77/107/91 85/116/91 78/108/91
f 82/112/92 90/127/92 83/113/92
f 80/110/93 88/122/93 81/111/93
f 79/109/94 85/116/94 86/118/94
f 77/107/95 54/65/95 84/114/95
f 76/102/96 83/113/96 90/127/96
f 89/125/97 97/134/97 90/126/97
f 87/121/98 95/132/98 88/123/98
f 86/119/99 92/129/99 93/130/99
f 84/115/100 54/66/100 91/128/100
f 76/103/101 90/126/101 97/134/101
f 88/123/102 96/133/102 89/125/102
f 87/121/103 93/130/103 94/131/103
f 84/115/104 92/129/104 85/117/104
f 94/131/105 102/139/105 95/132/105
f 93/130/106 99/136/106 100/137/106
f 91/128/107 54/67/107 98/135/107
f 76/104/108 97/134/108 104/141/108
f 95/132/109 103/140/109 96/133/109
f 94/131/110 100/137/110 101/138/110
f 91/128/111 99/136/111 92/129/111
f 96/133/112 104/141/112 97/134/112
f 76/105/113 104/141/113 111/148/113
f 102/139/114 110/147/114 103/140/114
f 101/138/115 107/144/115 108/145/115
f 98/135/116 106/143/116 99/136/116
f 103/140/117 111/148/117 104/141/117
f 101/138/118 109/146/118 102/139/118
f 100/137/119 106/143/119 107/144/119
f 98/135/120 54/68/120 105/142/120
f 108/145/121 2/2/121 113/150/121
f 105/142/122 1/1/122 106/143/122
f 110/147/123 4/4/123 111/148/123
f 108/145/124 3/3/124 109/146/124
f 107/144/125 1/1/125 2/2/125
f 105/142/126 54/69/126 112/149/126
f 76/106/127 111/148/127 4/4/127
f 109/146/128 114/151/128 110/147/128
f 114/151/2 3/3/2 9/9/2
f 113/150/3 2/2/3 7/7/3
f 112/149/4 5/5/4 6/6/4
f 114/151/5 10/10/5 11/11/5
f 113/150/6 8/8/6 9/9/6
f 1/1/7 6/6/7 7/7/7
f 10/10/9 17/17/9 18/18/9
f 8/8/10 15/15/10 16/16/10
f 6/6/11 13/13/11 14/14/11
f 9/9/14 16/16/14 17/17/14
f 7/7/15 14/14/15 15/15/15
f 5/5/16 12/12/16 13/13/16
f 15/15/17 22/22/17 23/23/17
f 13/13/18 20/20/18 21/21/18
f 16/16/21 23/23/21 24/24/21
f 14/14/22 21/21/22 22/22/22
f 12/12/23 19/19/23 20/20/23
f 17/17/24 24/24/24 25/25/24
f 23/23/26 30/30/26 31/31/26
f 22/22/27 21/21/27 28/28/27
f 20/20/28 19/19/28 26/26/28
f 24/24/29 31/31/29 32/32/29
f 22/22/30 29/29/30 30/30/30
f 20/20/31 27/27/31 28/28/31
f 28/28/33 35/35/33 36/36/33
f 26/26/34 33/33/34 34/34/34
f 32/32/35 31/31/35 38/38/35
f 29/29/36 36/36/36 37/37/36
f 28/28/37 27/27/37 34/34/37
f 30/30/40 37/37/40 38/38/40
f 38/38/41 45/45/41 46/46/41
f 36/36/42 43/43/42 44/44/42
f 35/35/43 34/34/43 41/41/43
f 37/37/46 44/44/46 45/45/46
f 35/35/47 42/42/47 43/43/47
f 33/33/48 40/40/48 41/41/48
f 42/42/49 41/41/49 48/48/49
f 44/44/52 51/51/52 52/52/52
f 42/42/53 49/49/53 50/50/53
f 40/40/54 47/47/54 48/48/54
f 46/46/55 45/45/55 52/52/55
f 44/44/56 43/43/56 50/50/56
f 51/51/58 59/74/58 60/75/58
f 49/49/59 57/72/59 58/73/59
f 47/47/60 55/70/60 56/71/60
f 53/53/61 52/52/61 60/75/61
f 50/50/62 58/73/62 59/74/62
f 48/48/63 56/71/63 57/72/63
f 55/70/65 62/77/65 63/78/65
f 60/75/66 67/82/66 68/83/66
f 59/74/67 58/73/67 65/80/67
f 56/71/68 63/78/68 64/79/68
f 59/74/71 66/81/71 67/82/71
f 58/73/72 57/72/72 64/79/72
f 68/83/73 67/82/73 74/89/73
f 65/80/74 72/87/74 73/88/74
f 63/78/75 70/85/75 71/86/75
f 66/81/78 73/88/78 74/89/78
f 64/79/79 71/86/79 72/87/79
f 62/77/80 69/84/80 70/85/80
f 73/88/83 81/111/83 82/112/83
f 71/86/84 79/109/84 80/110/84
f 69/84/85 77/107/85 78/108/85
f 75/90/86 74/89/86 82/112/86
f 72/87/87 80/110/87 81/111/87
f 70/85/88 78/108/88 79/109/88
f 81/111/89 88/122/89 89/124/89
f 80/110/90 79/109/90 86/118/90
f 77/107/91 84/114/91 85/116/91
f 82/112/92 89/124/92 90/127/92
f 80/110/93 87/120/93 88/122/93
f 79/109/94 78/108/94 85/116/94
f 89/125/97 96/133/97 97/134/97
f 87/121/98 94/131/98 95/132/98
f 86/119/99 85/117/99 92/129/99
f 88/123/102 95/132/102 96/133/102
f 87/121/103 86/119/103 93/130/103
f 84/115/104 91/128/104 92/129/104
f 94/131/105 101/138/105 102/139/105
f 93/130/106 92/129/106 99/136/106
f 95/132/109 102/139/109 103/140/109
f 94/131/110 93/130/110 100/137/110
f 91/128/111 98/135/111 99/136/111
f 96/133/112 103/140/112 104/141/112
f 102/139/114 109/146/114 110/147/114
f 101/138/115 100/137/115 107/144/115
f 98/135/116 105/142/116 106/143/116
f 103/140/117 110/147/117 111/148/117
f 101/138/118 108/145/118 109/146/118
f 100/137/119 99/136/119 106/143/119
f 108/145/121 107/144/121 2/2/121
f 105/142/122 112/149/122 1/1/122
f 110/147/123 114/151/123 4/4/123
f 108/145/124 113/150/124 3/3/124
f 107/144/125 106/143/125 1/1/125
f 109/146/128 3/3/128 114/151/128
